Format: Matroska
 Format version: Version 2
 File size: 1.37 GiB
 Duration: 1h 40mn
 Overall bit rate: 1 957 Kbps
 Encoded date: UTC 2012-01-18 00:36:29
 Writing application: mkvmerge v5.2.1 ('A Far Off Place') built on Jan 2 2012 23:21:10
 Writing library: libebml v1.2.3 + libmatroska v1.3.0
 
Video
 ID: 1
 Format: AVC
 Format/Info: Advanced Video Codec
 Format profile: High@L3.0
 Format settings, CABAC: Yes
 Format settings, ReFrames: 4 frames
 Muxing mode: Header stripping
 Codec ID: V_MPEG4/ISO/AVC
 Duration: 1h 40mn
 Bit rate: 1 828 Kbps
 Width: 720 pixels
 Height: 304 pixels
 Display aspect ratio: 2.35:1
 Frame rate: 25.000 fps
 Color space: YUV
 Chroma subsampling: 4:2:0
 Bit depth: 8 bits
 Scan type: Progressive
 Bits/(Pixel*Frame): 0.334
 Stream size: 1.25 GiB (91%)
 Writing library: x264 core 116 r2074 2641b9e
 Language: English
 Default: Yes
 Forced: No
 Source: INSPiRAL, cheers
 
Audio
 ID: 2
 Format: AC-3
 Format/Info: Audio Coding 3
 Mode extension: CM (complete main)
 Muxing mode: Header stripping
 Codec ID: A_AC3
 Duration: 1h 40mn
 Bit rate mode: Constant
 Bit rate: 128 Kbps
 Channel(s): 2 channels
 Channel positions: Front: L R
 Sampling rate: 44.1 KHz
 Bit depth: 16 bits
 Compression mode: Lossy
 Stream size: 91.6 MiB (7%)
 Default: Yes
 Forced: No
 Source: INSPiRAL, cheers
 

Tells the story of a woman who smashed through the barriers of gender and class to be heard in a male-dominated world. The story concerns power and the price that is paid for power, and is a surprising and insightful portrait of an extraordinary and complex woman.


Screenshots here:    http://imageshack.us/g/405/44617902.jpg/


Enjoy!!!!!!!!!!!!!